<?xml version="1.0" encoding="UTF-8"?>
<svg width="32px" height="32px" viewBox="0 0 32 32" version="1.1" xmlns="http://www.w3.org/2000/svg" xmlns:xlink="http://www.w3.org/1999/xlink">
    <title>Group 3</title>
    <g id="Page-1" stroke="none" stroke-width="1" fill="none" fill-rule="evenodd" opacity="0.60781715">
        <g id="Extra-Large" transform="translate(-705, -871)" fill="#B47A1C" fill-rule="nonzero">
            <g id="Group" transform="translate(705, 871)">
                <path d="M16,0 C24.8363636,0 32,7.16363636 32,16 C32,23.104 27.368,29.1236364 20.9607273,31.2116364 C20.9621818,31.2058182 20.9650909,31.1963636 20.9650909,31.1963636 C20.9650909,31.1963636 19.8850909,30.6901818 19.9083636,29.7869091 C19.9338182,28.7927273 19.9083636,26.4734545 19.9083636,25.6218182 C19.9083636,24.16 18.9832727,23.1243636 18.9832727,23.1243636 C18.9832727,23.1243636 26.2392727,23.2058182 26.2392727,15.464 C26.2392727,12.4770909 24.6778182,10.9221818 24.6778182,10.9221818 C24.6778182,10.9221818 25.4981818,7.73309091 24.3941818,6.38036364 C23.1570909,6.24654545 20.9403636,7.56290909 19.9941818,8.17818182 C19.9941818,8.17818182 18.4945455,7.56290909 16,7.56290909 C13.5054545,7.56290909 12.0058182,8.17818182 12.0058182,8.17818182 C11.0596364,7.56290909 8.84363636,6.24654545 7.60581818,6.38036364 C6.50181818,7.73309091 7.32218182,10.9221818 7.32218182,10.9221818 C7.32218182,10.9221818 5.76072727,12.4763636 5.76072727,15.464 C5.76072727,23.2058182 13.0167273,23.1243636 13.0167273,23.1243636 C13.0167273,23.1243636 12.2858182,23.9505455 12.1258182,25.1650909 C11.6196364,25.3367273 10.8741818,25.5490909 10.272,25.5490909 C8.69745455,25.5490909 7.49963636,24.0181818 7.06036364,23.3105455 C6.62763636,22.6123636 5.74036364,22.0261818 4.91272727,22.0261818 C4.368,22.0261818 4.10181818,22.2989091 4.10181818,22.6101818 C4.10181818,22.9214545 4.86545455,23.1389091 5.36945455,23.7163636 C6.432,24.9338182 6.41309091,27.6712727 10.1992727,27.6712727 C10.6101818,27.6712727 11.4494545,27.5701818 12.0814545,27.4850909 C12.0778182,28.3469091 12.0763636,29.2567273 12.0901818,29.7883636 C12.1127273,30.6916364 11.0334545,31.1978182 11.0334545,31.1978182 C11.0334545,31.1978182 11.0363636,31.2065455 11.0378182,31.2130909 C4.632,29.1236364 0,23.104 0,16 C0,7.16363636 7.16363636,0 16,0 Z" id="Path"></path>
            </g>
        </g>
    </g>
</svg>