<?xml version="1.0" encoding="UTF-8"?>
<svg width="32px" height="32px" viewBox="0 0 32 32" version="1.1" xmlns="http://www.w3.org/2000/svg" xmlns:xlink="http://www.w3.org/1999/xlink">
    <title>Group</title>
    <g id="Page-1" stroke="none" stroke-width="1" fill="none" fill-rule="evenodd" opacity="0.60781715">
        <g id="Extra-Large" transform="translate(-705, -749)" fill="#B47A1C" fill-rule="nonzero">
            <g id="Group" transform="translate(705, 749)">
                <path d="M22.5816,0 C31.316,0 32,0.6832 32,9.4184 L32,22.5808 C32,31.316 31.316,32 22.5816,32 L9.4184,32 C0.684,32 0,31.316 0,22.5816 L0,9.4184 C0,0.6832 0.684,0 9.4184,0 L22.5816,0 Z M10.4232,24.8 L10.4232,11.7824 L6.3776,11.7824 L6.3776,24.8 L10.4232,24.8 Z M8.4008,9.9208 C9.7008,9.9208 10.7584,8.8632 10.7584,7.5616 C10.7584,6.2616 9.7008,5.204 8.4008,5.204 C7.0976,5.204 6.0416,6.26 6.0416,7.5616 C6.0416,8.8632 7.096,9.9208 8.4008,9.9208 Z M25.6,24.8 L25.6,17.66 C25.6,14.1544 24.8432,11.4584 20.7464,11.4584 C18.7784,11.4584 17.4592,12.5376 16.9184,13.5608 L16.864,13.5608 L16.864,11.7824 L12.9832,11.7824 L12.9832,24.8 L17.0264,24.8 L17.0264,18.36 C17.0264,16.6624 17.3504,15.0176 19.4552,15.0176 C21.5304,15.0176 21.5576,16.9592 21.5576,18.4696 L21.5576,24.8 L25.6,24.8 Z" id="Shape"></path>
            </g>
        </g>
    </g>
</svg>