<?xml version="1.0" encoding="UTF-8"?>
<svg width="100px" height="100px" viewBox="0 0 100 100" version="1.1" xmlns="http://www.w3.org/2000/svg" xmlns:xlink="http://www.w3.org/1999/xlink">
    <title>Swift_logo_color</title>
    <g id="Page-1" stroke="none" stroke-width="1" fill="none" fill-rule="evenodd">
        <g id="Extra-Large-v2" transform="translate(-1503, -331)" fill-rule="nonzero">
            <g id="Group-4" transform="translate(1329, 64)">
                <g id="Swift_logo_color" transform="translate(174, 267)">
                    <path d="M100,27.6937618 C100,26.6540643 100,25.7088847 100,24.6691871 C99.9055713,22.4952741 99.8111426,20.2268431 99.4334278,18.0529301 C99.0557129,15.879017 98.394712,13.7996219 97.3559962,11.8147448 C96.3172805,9.82986767 95.0897073,8.03402647 93.4844193,6.52173913 C91.8791313,4.91493384 90.0849858,3.68620038 88.1964117,2.64650284 C86.2134089,1.60680529 84.1359773,0.945179584 81.9641171,0.56710775 C79.7922568,0.189035917 77.6203966,0 75.3541076,0 C74.3153919,0 73.3711048,0 72.332389,0 C71.1048159,0 69.9716714,0 68.7440982,0 L42.2096317,0 L31.2559018,0 C30.0283286,0 28.8951841,0 27.667611,0 C26.6288952,0 25.6846081,0 24.6458924,0 C24.0793201,0 23.5127479,0 23.0406043,0.0945179584 C21.4353163,0.189035917 19.7355996,0.283553875 18.1303116,0.56710775 C16.5250236,0.850661626 14.9197356,1.32325142 13.4088763,1.89035917 C12.9367328,2.07939509 12.3701605,2.36294896 11.898017,2.55198488 C10.3871577,3.30812854 9.06515581,4.25330813 7.74315392,5.29300567 C7.36543909,5.6710775 6.89329556,6.04914934 6.51558074,6.42722117 C4.91029273,8.03402647 3.68271955,9.82986767 2.64400378,11.7202268 C1.60528801,13.705104 0.944287063,15.7844991 0.566572238,17.9584121 C0.188857413,20.1323251 0.0944287063,22.3062382 0,24.5746692 C0,25.6143667 0,26.5595463 0,27.5992439 C0,28.8279773 0,29.9621928 0,31.1909263 L0,47.5425331 L0,68.7145558 C0,69.9432892 0,71.0775047 0,72.3062382 C0,73.3459357 0,74.2911153 0,75.3308129 C0.0944287063,77.5047259 0.188857413,79.7731569 0.566572238,81.9470699 C0.944287063,84.120983 1.60528801,86.2003781 2.64400378,88.1852552 C3.68271955,90.1701323 4.91029273,91.9659735 6.51558074,93.4782609 C8.12086874,95.0850662 9.91501416,96.3137996 11.8035883,97.3534972 C13.7865911,98.3931947 15.8640227,99.0548204 18.0358829,99.4328922 C20.2077432,99.8109641 22.3796034,100 24.6458924,100 C25.6846081,100 26.6288952,100 27.667611,100 C28.8951841,100 30.0283286,100 31.2559018,100 L68.7440982,100 C69.9716714,100 71.1048159,100 72.332389,100 C73.3711048,100 74.3153919,100 75.3541076,100 C77.5259679,99.905482 79.7922568,99.8109641 81.9641171,99.4328922 C84.1359773,99.0548204 86.2134089,98.3931947 88.1964117,97.3534972 C90.1794145,96.3137996 91.97356,95.0850662 93.4844193,93.4782609 C95.0897073,91.8714556 96.3172805,90.0756144 97.3559962,88.1852552 C98.394712,86.2003781 99.0557129,84.120983 99.4334278,81.9470699 C99.8111426,79.7731569 100,77.5992439 100,75.3308129 C100,74.2911153 100,73.3459357 100,72.3062382 C100,71.0775047 100,69.9432892 100,68.7145558 L100,31.1909263 C100,30.0567108 100,28.9224953 100,27.6937618 Z" id="Path" fill="#F05138"></path>
                    <path d="M78.3510382,60.7469389 C78.444556,60.3716579 78.5380739,59.996377 78.6315918,59.621096 C82.7463793,43.2025542 72.7399644,23.6879445 55.7197073,13.4615385 C63.201139,23.5941243 66.4742654,35.8845756 63.5752106,46.5800828 C63.2946569,47.5182852 63.0141032,48.4564876 62.6400316,49.39469 C62.26596,49.1132292 61.7983706,48.8317685 61.1437453,48.5503078 C61.1437453,48.5503078 44.2170061,38.0424411 25.8874985,19.559854 C25.419909,19.0907528 35.7068776,34.2896315 47.3030967,46.5800828 C41.7855408,43.4840149 26.5421238,32.3194065 16.8162626,23.500304 C18.0319953,25.470529 19.4347637,27.4407541 20.93105,29.2233386 C28.9735891,39.5435649 39.5411113,52.2092971 52.1660273,61.966602 C43.2818272,67.4081758 30.7504291,67.877277 18.3125489,61.966602 C15.2264584,60.5592984 12.3274036,58.7767139 9.61538462,56.8064888 C14.8523868,65.2503103 22.9884437,72.568289 32.9013407,76.88402 C44.6845956,81.9503129 56.4678505,81.6688522 65.1650148,76.9778402 L65.1650148,76.9778402 C65.1650148,76.9778402 65.2585327,76.9778402 65.2585327,76.88402 C65.6326043,76.6963795 66.0066759,76.4149188 66.3807475,76.2272783 C70.5890528,74.0694128 78.8186276,71.9115473 83.3074866,80.5430093 C84.6167372,82.5132343 86.9546846,71.2548056 78.3510382,60.7469389 C78.3510382,60.7469389 78.3510382,60.7469389 78.3510382,60.7469389 Z" id="Path" fill="#FFFFFF"></path>
                </g>
            </g>
        </g>
    </g>
</svg>