<?xml version="1.0" encoding="UTF-8"?>
<svg width="90px" height="100px" viewBox="0 0 90 100" version="1.1" xmlns="http://www.w3.org/2000/svg" xmlns:xlink="http://www.w3.org/1999/xlink">
    <title>compose-roadmap</title>
    <g id="Page-1" stroke="none" stroke-width="1" fill="none" fill-rule="evenodd">
        <g id="Extra-Large-v2" transform="translate(-1368, -161)" fill-rule="nonzero">
            <g id="Group-4" transform="translate(1329, 64)">
                <g id="compose-roadmap" transform="translate(39, 97)">
                    <path d="M70.9925235,34.4862287 C71.014,34.5239468 71.0354765,34.5609938 71.0462148,34.5798529 C71.5871546,35.516766 71.9032621,36.5842832 71.9207118,37.698042 L72.1650072,62.9962395 C72.1764166,64.4889918 71.3945371,65.8647641 70.1193688,66.6016771 L48.2066088,79.2553732 C47.2683534,79.7969842 46.2710376,80.1486621 45.255601,80.2104071 L45.4811044,99.9708173 C47.1509037,99.83122 48.8166761,99.2936359 50.3636566,98.3761858 L86.5529321,77.4775202 C88.6616577,76.2352378 89.9529334,73.9647672 89.9323757,71.5023501 L89.5542755,29.7646833 C89.5408527,27.9227363 89.0187048,26.1503866 88.1314562,24.6140102 L88.1119931,24.6244129 C85.820717,25.8981046 76.7327941,31.1709925 70.9925235,34.4862287 Z" id="Path" fill="#073042"></path>
                    <path d="M45.2482184,80.2392662 C44.1468757,80.3258434 43.0663384,80.10034 42.0435192,79.5412794 L21.0790817,67.7070467 C19.1227051,66.6137577 17.9133087,64.5630857 17.8857919,62.3050312 L17.6757247,38.2370355 C17.6609596,37.1707263 17.9065973,36.0797863 18.3723693,35.1103229 L1.14081909,25.4949501 C0.381087263,27.08334 -0.0168994658,28.8628708 0.000550205289,30.6267641 L0.358268462,70.3775175 C0.394510086,74.0802035 2.40055112,77.4694665 5.62337113,79.2822189 L40.2119749,98.8157833 C41.8784185,99.7526964 43.6851306,100.109072 45.4817755,99.9714885 L45.2482184,80.2392662 Z" id="Path" fill="#3DDC84"></path>
                    <path d="M1.15088621,25.5139434 L18.3831075,35.1293162 C18.8837789,34.0903225 19.6649872,33.1898524 20.6482091,32.5968991 L41.5106331,20.5498476 C43.4509023,19.4042766 45.8361381,19.3763572 47.7743939,20.4809885 L68.7381602,32.3147513 C69.6717176,32.8497851 70.4542682,33.5975035 70.9925235,34.4862958 C76.7032639,31.1632744 85.8019251,25.9092456 88.0938723,24.6355538 L88.1126642,24.62448 C87.1958853,23.0797143 85.896556,21.7813245 84.2885017,20.860653 L49.6817771,1.33732347 C46.458286,-0.474702718 42.5213717,-0.449993313 39.3347933,1.44005506 L4.90860576,21.3197136 C3.25021587,22.3027341 1.97974559,23.7857548 1.15088621,25.5139434 Z" id="Path" fill="#4285F4"></path>
                    <path d="M45.3113057,70.2077188 C45.7542589,70.152014 46.1831181,70.0291952 46.6180176,69.828524 C46.7784203,69.7600676 46.928756,69.6734904 47.0978835,69.5761749 L61.7871509,61.0932858 C61.8999026,61.0282522 61.9931912,60.9742924 62.0952047,60.8904669 C62.3925202,60.6687219 62.6274196,60.3826815 62.7931915,60.0628156 C62.9153392,59.8417417 62.990507,59.6238892 63.0643326,59.4061039 C63.128091,59.1694595 63.1623192,58.9249628 63.1475541,58.6830835 L62.9925204,41.7305939 C62.9864802,40.9841506 62.7690304,40.259855 62.4119833,39.6415327 C62.3905068,39.6038816 62.3576209,39.5479085 62.3368155,39.5102574 C61.9824529,38.9400559 61.4777548,38.4569684 60.856278,38.1162301 L46.800568,30.1900526 C46.7193599,30.1366968 46.6307693,30.11267 46.5502323,30.0593143 C46.3804336,29.9826028 46.211306,29.9052202 46.0334536,29.8577706 C45.7858025,29.7758913 45.5012386,29.7154215 45.2267419,29.6738107 C45.0415069,29.6562268 44.8562719,29.6387101 44.6817752,29.6391551 C44.5556007,29.6373678 44.4394933,29.6536094 44.3247281,29.6705222 C44.2086207,29.6874349 44.0636542,29.6958913 43.9300971,29.7232067 C43.8811038,29.7264282 43.844191,29.7479047 43.7951977,29.7511933 C43.3743922,29.8441464 42.9663383,30.0047505 42.5730496,30.2322673 L28.5958631,38.3034785 C28.3327757,38.4550221 28.110628,38.6338142 27.8992185,38.8307941 C27.7522386,38.9653579 27.6347889,39.1084452 27.5173392,39.2514654 C27.4636479,39.3320695 27.4099566,39.4126735 27.3569364,39.4939487 C27.2844532,39.5856266 27.2421713,39.6851568 27.1804263,39.7956267 C27.1461981,39.865224 27.1112988,39.9354254 27.0763994,40.0056268 C26.9998893,40.1746872 26.9415,40.333345 26.8636477,40.5030095 C26.6804261,41.0088486 26.5965335,41.5569696 26.6099563,42.0991846 L26.7455268,58.2390565 C26.7522382,58.5101975 26.7690168,58.8001305 26.8240503,59.0680501 C26.9039161,59.4223455 27.0307618,59.7734195 27.1958626,60.1024129 C27.2388156,60.1778492 27.2824398,60.2526143 27.3368022,60.3462385 C27.3904935,60.4398627 27.4341177,60.515299 27.5066009,60.5978493 C27.644856,60.7929501 27.8119702,60.9964401 27.987138,61.1699972 C28.0274065,61.1967086 28.0495541,61.2343597 28.0898226,61.2610711 C28.3274066,61.4983866 28.609957,61.6849638 28.9112994,61.8611384 L42.9670095,69.7875844 C43.3790902,70.0238261 43.8334528,70.16141 44.2925133,70.2211416 C44.4784195,70.2385913 44.6636544,70.2567121 44.8388223,70.2554401 C44.9347955,70.2493295 45.013319,70.2546986 45.1099633,70.2493295 C45.1770774,70.2352356 45.2435204,70.2218127 45.3113057,70.2077188 Z" id="Path" fill="#D7EFFE"></path>
                    <path d="M62.3368155,39.5113984 C62.358292,39.5491165 62.3911779,39.6050226 62.4119833,39.6427407 C62.7690304,40.2610631 62.9871513,40.9853587 62.9925204,41.7317348 L63.1482252,58.6842916 C63.1435272,58.9365735 63.1287621,59.1706676 63.0650037,59.407312 C63.0012453,59.6439564 62.9079567,59.8722115 62.7931915,60.0639565 C62.6173525,60.3650305 62.381782,60.6510708 62.0958758,60.891675 C61.9938623,60.9755005 61.8999026,61.0294602 61.787822,61.0944938 L47.0978835,69.5775172 C46.948219,69.6640944 46.7790915,69.7614099 46.6180176,69.8298663 C46.2025812,70.0191281 45.7542589,70.1533563 45.3113057,70.209061 L45.1817754,74.8822172 L45.2488895,80.2406085 C46.2529168,80.1607427 47.261642,79.8278566 48.1998974,79.2862457 L70.1119862,66.6325496 C71.3770874,65.8771802 72.1589669,64.5014079 72.1582962,63.0268436 L71.9428594,37.7371024 C71.9254097,36.6227396 71.6287653,35.5453566 71.0690336,34.6189133 C71.0475571,34.5811952 71.0260805,34.5441482 71.0146711,34.5252891 C68.2200392,36.1396521 66.241515,37.3066996 66.241515,37.3066996 L62.3368155,39.5113984 Z" id="Path" fill="#041619"></path>
                    <path d="M17.686463,38.2552905 L17.8965302,62.3233534 C17.9133087,64.5625488 19.122034,66.6137577 21.08982,67.7265098 L42.0535863,79.5600713 C43.0576135,80.1298702 44.1569428,80.3439642 45.2582855,80.2580582 L45.1811043,74.8802038 L45.3106345,70.2070476 C45.2435204,70.2211416 45.1764063,70.2352356 45.108621,70.2486584 C45.0126478,70.2546986 44.9160035,70.2607389 44.83748,70.2553698 C44.6629833,70.2560409 44.4777483,70.2385913 44.2925133,70.2204704 C43.8327816,70.16141 43.397211,70.0130878 42.9663383,69.7869132 L28.9106283,61.8604002 C28.6086148,61.6848967 28.3448563,61.4872457 28.0891515,61.2603328 C28.048883,61.2336885 28.0274065,61.1966415 27.987138,61.1699301 C27.811299,60.996373 27.6549231,60.8116749 27.5066009,60.5977822 C27.4515673,60.503554 27.3898224,60.4397956 27.3361311,60.3461714 C27.2925069,60.2707351 27.2495538,60.19597 27.1951914,60.1023458 C27.0300907,59.7727484 26.9133121,59.4404664 26.8233792,59.0679159 C26.7683456,58.7994594 26.732104,58.5205331 26.7448557,58.2383182 L26.608614,42.0991175 C26.5958623,41.5569025 26.6904932,41.0269694 26.8629765,40.5029424 C26.9213658,40.3442846 26.998547,40.1746201 27.0763994,40.0048885 C27.1106276,39.9353583 27.1448558,39.8651569 27.1804263,39.7948884 L23.3012302,37.8866327 L18.3347854,35.1318665 C17.9173355,36.0980414 17.6602885,37.1708606 17.686463,38.2552905 Z" id="Path" fill="#37BF6E"></path>
                    <path d="M27.2280773,39.7917341 C27.2891512,39.6811971 27.3428425,39.600593 27.4045875,39.4900561 C27.4576076,39.409452 27.5106278,39.3287809 27.5643191,39.2475057 C27.6817688,39.1051566 27.8186816,38.9510626 27.9468695,38.8269015 C28.158279,38.6298544 28.3804268,38.4517335 28.6435141,38.300257 L42.6200295,30.2289787 C43.0133182,30.0014619 43.4220432,29.8408578 43.8428487,29.7472336 C43.8911709,29.7446161 43.9287548,29.7232067 43.977077,29.7199181 C44.1113052,29.6926027 44.2267415,29.6756899 44.371708,29.6672336 C44.4871443,29.6503879 44.6133188,29.6523342 44.7294263,29.6354215 C44.9032518,29.6347503 45.0891579,29.6529383 45.2743929,29.6705222 C45.5488897,29.7121329 45.8039233,29.7648175 46.0811046,29.854482 C46.258957,29.9019988 46.4274135,29.9787102 46.5972122,30.0560928 C46.6784203,30.1093814 46.7670109,30.1328042 46.8475479,30.1860928 L60.9032579,38.1123374 C61.5066138,38.4640825 62.011312,38.947774 62.3831242,39.5069688 L66.2676895,37.2644848 C66.2676895,37.2644848 68.2556097,36.1156924 71.0401745,34.4830743 C70.5025904,33.594282 69.7395029,32.8355569 68.7864824,32.3108587 L47.822716,20.477767 C45.8656683,19.3835384 43.4797614,19.4114579 41.5582841,20.546022 L20.6965312,32.5936776 C19.6945174,33.1970336 18.932101,34.087101 18.4314297,35.1260947 L23.3978745,37.8802568 L27.2280773,39.7917341 Z" id="Path" fill="#3870B2"></path>
                </g>
            </g>
        </g>
    </g>
</svg>