<?xml version="1.0" encoding="UTF-8"?>
<svg width="100px" height="100px" viewBox="0 0 100 100" version="1.1" xmlns="http://www.w3.org/2000/svg" xmlns:xlink="http://www.w3.org/1999/xlink">
    <title>ts-logo-128</title>
    <g id="Page-1" stroke="none" stroke-width="1" fill="none" fill-rule="evenodd">
        <g id="Extra-Large-v2" transform="translate(-1658, -331)">
            <g id="Group-4" transform="translate(1329, 64)">
                <g id="ts-logo-128" transform="translate(329, 267)">
                    <rect id="Rectangle" fill="#3178C6" fill-rule="nonzero" x="0" y="0" width="100" height="100" rx="6"></rect>
                    <path d="M58.13885,76.8984615 L58.13885,87.6876923 C59.9045066,88.5861538 61.9926185,89.2607692 64.4034188,89.71 C66.8142191,90.16 69.3550894,90.3846154 72.0261849,90.3846154 C74.6293706,90.3846154 77.102331,90.1376923 79.4448329,89.6430769 C81.7882673,89.1484615 83.8418803,88.3338462 85.6080031,87.1984615 C87.3733489,86.0630769 88.7711733,84.58 89.8014763,82.7476923 C90.8310023,80.9161538 91.3461538,78.6515385 91.3461538,75.9543846 C91.3461538,73.9989231 91.0516706,72.2850769 90.463481,70.8127692 C89.8745144,69.3405385 89.0260295,68.0313077 87.9164724,66.8849231 C86.8076923,65.7386154 85.477467,64.7103077 83.9273504,63.8 C82.3764569,62.8896923 80.6282051,62.0299231 78.6810412,61.2207692 C77.2550894,60.6363846 75.9761461,60.0688462 74.8443667,59.5181538 C73.7125097,58.9674615 72.7505051,58.4055385 71.9582751,57.8323846 C71.1659674,57.2591538 70.5547786,56.6523077 70.1247086,56.0116923 C69.6946387,55.3711538 69.4795649,54.6462308 69.4795649,53.8370769 C69.4795649,53.0953077 69.6719503,52.4266154 70.0567988,51.831 C70.4416472,51.2353846 70.9849262,50.724 71.6866356,50.2969231 C72.388345,49.8699231 73.2484848,49.5383846 74.2671329,49.3023846 C75.2857809,49.0663077 76.4175602,48.9483077 77.6625486,48.9483077 C78.5683761,48.9483077 79.524087,49.0157692 80.531857,49.1506154 C81.53885,49.2854615 82.5520591,49.4933846 83.5707071,49.7743846 C84.5893551,50.0553077 85.5792541,50.4093077 86.541958,50.8363846 C87.503885,51.2634615 88.3919969,51.7579231 89.2070707,52.3198462 L89.2070707,42.239 C87.5543901,41.6096154 85.7494172,41.1432308 83.7913753,40.8397692 C81.8333333,40.5363077 79.5870241,40.3846154 77.0513598,40.3846154 C74.4708625,40.3846154 72.0261849,40.6599231 69.7172494,41.2106154 C67.4083916,41.7613077 65.3767677,42.6210769 63.6224553,43.7898462 C61.868143,44.9586923 60.4816628,46.4477692 59.4630925,48.2571538 C58.4444444,50.0665385 57.9351204,52.2299231 57.9351204,54.7473846 C57.9351204,57.9616154 58.8688423,60.7037692 60.7363636,62.9739231 C62.603885,65.2441538 65.4390054,67.1659231 69.2418803,68.7393077 C70.7358974,69.3461538 72.1280497,69.9418462 73.4182595,70.5262308 C74.708547,71.1106154 75.8233877,71.7174615 76.7627817,72.3468462 C77.7021756,72.9762308 78.4432789,73.6617692 78.9864025,74.4034615 C79.530303,75.1452308 79.8014763,75.9880769 79.8014763,76.9321538 C79.8014763,77.6292308 79.6320901,78.2753846 79.2925408,78.8707692 C78.9529915,79.4661538 78.4378399,79.9830769 77.7474747,80.4215385 C77.0570319,80.86 76.196892,81.2030769 75.1668998,81.45 C74.1369852,81.6969231 72.9316239,81.8207692 71.5508159,81.8207692 C69.1965812,81.8207692 66.8651127,81.4107692 64.5561772,80.59 C62.2473193,79.77 60.1082362,78.5392308 58.13885,76.8984615 L58.13885,76.8984615 Z M39.8330225,50.0418462 L54.0501166,50.0418462 L54.0501166,41.1538462 L14.4230769,41.1538462 L14.4230769,50.0418462 L28.5706294,50.0418462 L28.5706294,89.6153846 L39.8330225,89.6153846 L39.8330225,50.0418462 Z" id="Shape" fill="#FFFFFF"></path>
                </g>
            </g>
        </g>
    </g>
</svg>