<?xml version="1.0" encoding="UTF-8"?>
<svg width="32px" height="26px" viewBox="0 0 32 26" version="1.1" xmlns="http://www.w3.org/2000/svg" xmlns:xlink="http://www.w3.org/1999/xlink">
    <title>Group 2</title>
    <g id="Page-1" stroke="none" stroke-width="1" fill="none" fill-rule="evenodd" opacity="0.60781715">
        <g id="Extra-Large" transform="translate(-705, -813)" fill="#B47A1C" fill-rule="nonzero">
            <g id="Group" transform="translate(705, 813)">
                <path d="M32,3.07873081 C31.1199817,4.39409154 30.0059585,5.55011563 28.7225984,6.4768016 C28.7345986,6.75880748 28.7412654,7.04148003 28.7412654,7.32615263 C28.7412654,16.0016667 22.1397946,26.0052084 10.063543,26.0052084 C6.35546574,26.0052084 1.52336507,24.7065147 0,23.0564803 C0.514677389,23.117815 1.03735494,23.1484823 1.56669931,23.1484823 C4.64343007,23.1484823 7.47415571,22.0984604 9.7202025,20.337757 C6.84747599,20.2850893 4.42275881,18.3857164 3.58740807,15.777662 C4.89410196,15.9829996 6.5521365,15.6643263 6.5521365,15.6643263 C6.5521365,15.6643263 1.41869622,14.7829746 1.28602679,9.14485718 C2.77005771,10.0055418 4.25942207,9.96554095 4.25942207,9.96554095 C4.25942207,9.96554095 1.29869372,8.14283631 1.34002792,4.50209379 C1.3646951,2.35471572 2.22737974,1.200025 2.22737974,1.200025 C7.83682993,8.10750224 15.7596617,8.06016792 15.7596617,8.06016792 C15.7596617,8.06016792 15.5896581,7.07948082 15.5896581,6.56480343 C15.5896581,2.94006125 18.528386,0 22.1544616,0 C24.0425009,0 25.7485364,0.797349945 26.9458947,2.07404321 C28.4425926,1.77870372 29.8479552,1.23202567 31.1159816,0.48001 C30.543303,2.77339111 28.2299215,4.11208567 28.2299215,4.11208567 C28.2299215,4.11208567 30.209296,3.89274777 32,3.07873081 Z" id="Path"></path>
            </g>
        </g>
    </g>
</svg>